<svg xmlns="http://www.w3.org/2000/svg" width="1024" height="1024" viewBox="0 0 1024 1024">
  <defs>
    <linearGradient id="sky" x1="0" y1="0" x2="0" y2="1"><stop offset="0" stop-color="#2f6fb0"/><stop offset=".6" stop-color="#9dbfd2"/><stop offset="1" stop-color="#e6e0c4"/></linearGradient>
    <radialGradient id="sun"><stop offset="0" stop-color="#fff"/><stop offset=".3" stop-color="#fff6c0" stop-opacity=".6"/><stop offset="1" stop-color="#fff6c0" stop-opacity="0"/></radialGradient>
    <clipPath id="tile"><rect x="100" y="100" width="824" height="824" rx="190"/></clipPath>
    <filter id="shadow" x="-10%" y="-10%" width="120%" height="125%"><feDropShadow dx="0" dy="14" stdDeviation="16" flood-color="#000" flood-opacity="0.35"/></filter>
  </defs>
  <g filter="url(#shadow)"><rect x="100" y="100" width="824" height="824" rx="190" fill="#2f6fb0"/></g>
  <g clip-path="url(#tile)"><g transform="translate(100 100) scale(4.12)"><rect width="200" height="200" fill="url(#sky)"/><circle cx="40" cy="36" r="48" fill="url(#sun)"/><circle cx="40" cy="36" r="10" fill="#fff"/><path d="M92 26 H164 M114 40 H190 M70 52 H116" stroke="#fff" opacity=".28" stroke-width="5" stroke-linecap="round"/><path d="M0 104 Q60 94 120 102 T200 96 V200 H0Z" fill="#9aa062"/><rect x="150" y="89" width="22" height="12" fill="#bfbdb6" stroke="#7d7a78" stroke-width=".6"/><polygon points="148,90 161,81 174,90" fill="#8a6f68" stroke="#7d7a78" stroke-width=".6" stroke-linejoin="round"/><rect x="145" y="75" width="9" height="26" fill="#bfbdb6" stroke="#7d7a78" stroke-width=".6"/><polygon points="143.5,76 149.5,59 155.5,76" fill="#8a6f68" stroke="#7d7a78" stroke-width=".6" stroke-linejoin="round"/><path d="M149.5 59 V53 M147.5 55 H151.5" stroke="#7d7a78" stroke-width="1"/><path d="M147.5 87 V82 Q149.5 79 151.5 82 V87Z" fill="#5a6672"/><rect x="155" y="93" width="3" height="5" fill="#5a6672"/><rect x="163" y="93" width="3" height="5" fill="#5a6672"/><path d="M0 108 Q100 102 200 106 V200 H0Z" fill="#8a9150"/><ellipse cx="5" cy="110.6" rx="5.4" ry="1.5" fill="#2f3a1c" opacity=".4"/><rect x="4" y="105.2" width="2" height="4.8" fill="#4a3020"/><circle cx="5" cy="101.6" r="6" fill="#3f5a2f" stroke="#2a211a" stroke-width=".7"/><circle cx="3.2" cy="99.8" r="2.7" fill="#5a7a3f" opacity=".7"/><ellipse cx="20" cy="109.8" rx="12.4" ry="1.6" fill="#2f3a1c" opacity=".45"/><rect x="10" y="85" width="20" height="24" fill="#d6c9a6" stroke="#2a211a" stroke-width=".8" stroke-linejoin="round"/><path d="M10 95.8 H30 M20 85 V109" stroke="#5a3a22" stroke-width="1" fill="none"/><path d="M10 95.8 L20 85 L30 95.8" stroke="#5a3a22" stroke-width=".7" fill="none"/><rect x="13" y="89" width="3" height="4" fill="#34424f"/><rect x="24" y="89" width="3" height="4" fill="#34424f"/><rect x="13" y="98.8" width="3" height="4" fill="#34424f"/><rect x="22" y="101" width="4" height="8" fill="#5a3a22" stroke="#2a211a" stroke-width=".8" stroke-linejoin="round"/><polygon points="7.5,86 20,72 32.5,86" fill="#7a3a2a" stroke="#2a211a" stroke-width=".8" stroke-linejoin="round"/><rect x="9.6" y="107" width="20.8" height="2" fill="#8a8678"/><ellipse cx="45" cy="109.8" rx="14.88" ry="1.6" fill="#2f3a1c" opacity=".45"/><rect x="33" y="97" width="24" height="12" fill="#bdb8a6" stroke="#2a211a" stroke-width=".8" stroke-linejoin="round"/><rect x="37" y="100" width="3" height="4" fill="#34424f"/><rect x="49" y="100" width="3" height="4" fill="#34424f"/><rect x="43" y="102" width="4" height="7" fill="#5a3a22" stroke="#2a211a" stroke-width=".8" stroke-linejoin="round"/><polygon points="30.5,98 37,88 53,88 59.5,98" fill="#4e4e58" stroke="#2a211a" stroke-width=".8" stroke-linejoin="round"/><rect x="32.6" y="107" width="24.8" height="2" fill="#8a8678"/><circle cx="70" cy="70" r="2" fill="#4a4640" opacity=".6"/><circle cx="72" cy="66" r="2.6" fill="#4a4640" opacity=".45"/><circle cx="75" cy="61" r="3.2" fill="#4a4640" opacity=".32"/><rect x="68" y="75" width="3.4" height="9" fill="#6a3a2a" stroke="#2a211a" stroke-width=".8" stroke-linejoin="round"/><ellipse cx="66.5" cy="109.8" rx="8.06" ry="1.6" fill="#2f3a1c" opacity=".45"/><rect x="60" y="87" width="13" height="22" fill="#e0d8c4" stroke="#2a211a" stroke-width=".8" stroke-linejoin="round"/><rect x="62.5" y="92" width="3" height="4" fill="#34424f"/><rect x="67.5" y="92" width="3" height="4" fill="#34424f"/><rect x="64" y="102" width="3" height="4" fill="#34424f"/><rect x="65" y="102" width="3" height="7" fill="#5a3a22" stroke="#2a211a" stroke-width=".8" stroke-linejoin="round"/><polygon points="58,88 66.5,71 75,88" fill="#a9502f" stroke="#2a211a" stroke-width=".8" stroke-linejoin="round"/><rect x="59.6" y="107" width="13.8" height="2" fill="#8a8678"/><ellipse cx="161" cy="109.8" rx="17.36" ry="1.6" fill="#2f3a1c" opacity=".45"/><rect x="147" y="95" width="28" height="14" fill="#8a6a48" stroke="#2a211a" stroke-width=".8" stroke-linejoin="round"/><rect x="156" y="99" width="10" height="10" fill="#4a3020" stroke="#2a211a" stroke-width=".8" stroke-linejoin="round"/><path d="M156 99 L166 109 M166 99 L156 109" stroke="#2a1a10" stroke-width=".8"/><polygon points="145.5,96 151,87 161,83 171,87 176.5,96" fill="#5a3a2a" stroke="#2a211a" stroke-width=".8" stroke-linejoin="round"/><rect x="146.6" y="107" width="28.8" height="2" fill="#8a8678"/><circle cx="190" cy="68" r="2" fill="#4a4640" opacity=".6"/><circle cx="192" cy="64" r="2.6" fill="#4a4640" opacity=".45"/><circle cx="195" cy="59" r="3.2" fill="#4a4640" opacity=".32"/><rect x="188" y="73" width="3.4" height="9" fill="#6a3a2a" stroke="#2a211a" stroke-width=".8" stroke-linejoin="round"/><ellipse cx="185.5" cy="109.8" rx="9.3" ry="1.6" fill="#2f3a1c" opacity=".45"/><rect x="178" y="85" width="15" height="24" fill="#cfc3a2" stroke="#2a211a" stroke-width=".8" stroke-linejoin="round"/><rect x="180.5" y="90" width="3" height="4" fill="#34424f"/><rect x="187.5" y="90" width="3" height="4" fill="#34424f"/><rect x="182" y="100" width="3" height="4" fill="#34424f"/><rect x="184" y="102" width="3" height="7" fill="#5a3a22" stroke="#2a211a" stroke-width=".8" stroke-linejoin="round"/><polygon points="176,86 185.5,69 195,86" fill="#7a3a2a" stroke="#2a211a" stroke-width=".8" stroke-linejoin="round"/><rect x="177.6" y="107" width="15.8" height="2" fill="#8a8678"/><ellipse cx="145" cy="110.6" rx="4.95" ry="1.5" fill="#2f3a1c" opacity=".4"/><rect x="144" y="105.6" width="2" height="4.4" fill="#4a3020"/><circle cx="145" cy="102.3" r="5.5" fill="#4b6a34" stroke="#2a211a" stroke-width=".7"/><circle cx="143.35" cy="100.65" r="2.48" fill="#5a7a3f" opacity=".7"/><ellipse cx="196" cy="110.6" rx="5.4" ry="1.5" fill="#2f3a1c" opacity=".4"/><rect x="195" y="105.2" width="2" height="4.8" fill="#4a3020"/><circle cx="196" cy="101.6" r="6" fill="#3f5a2f" stroke="#2a211a" stroke-width=".7"/><circle cx="194.2" cy="99.8" r="2.7" fill="#5a7a3f" opacity=".7"/><path d="M50 120 Q100 70 150 120Z" fill="#7d8648" stroke="#5f6a36" stroke-width="1"/><path d="M74 104 Q100 92 128 104" fill="none" stroke="#a0aa62" stroke-width="2" opacity=".6" stroke-linecap="round"/><g transform="translate(80 22)">
<path d="M20 6 V-14" stroke="#2a211a" stroke-width="1.6"/><path d="M20 -14 L37 -10 L20 -4Z" fill="#b8321f"/>
<path d="M8 22 L6 78 H34 L32 22Z" fill="#aaa89e"/><path d="M20 22 H32 L34 78 H20Z" fill="#7b796f" opacity=".55"/>
<path d="M7 38 H33 M7 54 H33 M7 68 H33 M14 22 V38 M26 38 V54 M14 54 V68 M26 68 V78" stroke="#7b796f" stroke-width="1" opacity=".7"/>
<rect x="3" y="22" width="34" height="5" fill="#7b796f"/><rect x="3" y="14" width="34" height="9" fill="#aaa89e"/>
<rect x="3" y="6" width="8" height="9" fill="#aaa89e"/><rect x="16" y="6" width="8" height="9" fill="#aaa89e"/><rect x="29" y="6" width="8" height="9" fill="#aaa89e"/>
<rect x="29" y="6" width="8" height="9" fill="#7b796f" opacity=".5"/><rect x="3" y="6" width="34" height="1.5" fill="#fff" opacity=".25"/>
<path d="M3 27 H5 V30 H8 V27 H12 V30 H15 V27 H19 V30 H22 V27 H26 V30 H29 V27 H33 V30 H36 V27 H37" fill="none" stroke="#2a211a" stroke-width="1" opacity=".5"/>
<rect x="18" y="34" width="4" height="12" fill="#1f1a17"/><rect x="18" y="52" width="4" height="10" fill="#1f1a17"/>
<path d="M15 78 V68 Q20 60 25 68 V78Z" fill="#5a3a22"/>
<path d="M3 6 H37 V27 H3Z M8 27 L6 78 H34 L32 27" fill="none" stroke="#2a211a" stroke-width="2" stroke-linejoin="round"/></g><path d="M0 118 Q60 112 120 118 T200 114 V200 H0Z" fill="#6b7440"/><ellipse cx="15" cy="122.8" rx="8.68" ry="1.6" fill="#2f3a1c" opacity=".45"/><rect x="8" y="113" width="14" height="9" fill="#c9b98f" stroke="#2a211a" stroke-width=".8" stroke-linejoin="round"/><rect x="13.4" y="116" width="3.2" height="6" fill="#4a3020" stroke="#2a211a" stroke-width=".8" stroke-linejoin="round"/><rect x="17" y="115" width="2.6" height="3" fill="#34424f"/><polygon points="5.5,114 10,106 20,106 24.5,114" fill="#a8883a" stroke="#2a211a" stroke-width=".8" stroke-linejoin="round"/><rect x="7.6" y="120" width="14.8" height="2" fill="#8a8678"/><ellipse cx="36" cy="121.8" rx="12.4" ry="1.6" fill="#2f3a1c" opacity=".45"/><rect x="26" y="110" width="20" height="11" fill="#d6c9a6" stroke="#2a211a" stroke-width=".8" stroke-linejoin="round"/><rect x="30" y="113" width="3" height="4" fill="#34424f"/><rect x="38" y="113" width="3" height="4" fill="#34424f"/><rect x="34" y="114" width="4" height="7" fill="#5a3a22" stroke="#2a211a" stroke-width=".8" stroke-linejoin="round"/><polygon points="23.5,111 30,101 42,101 48.5,111" fill="#7a3a2a" stroke="#2a211a" stroke-width=".8" stroke-linejoin="round"/><rect x="25.6" y="119" width="20.8" height="2" fill="#8a8678"/><ellipse cx="54" cy="122.6" rx="4.5" ry="1.5" fill="#2f3a1c" opacity=".4"/><rect x="53" y="118" width="2" height="4" fill="#4a3020"/><circle cx="54" cy="115" r="5" fill="#3f5a2f" stroke="#2a211a" stroke-width=".7"/><circle cx="52.5" cy="113.5" r="2.25" fill="#5a7a3f" opacity=".7"/><ellipse cx="167.5" cy="121.8" rx="9.3" ry="1.6" fill="#2f3a1c" opacity=".45"/><rect x="160" y="111" width="15" height="10" fill="#bdb8a6" stroke="#2a211a" stroke-width=".8" stroke-linejoin="round"/><rect x="165.9" y="115" width="3.2" height="6" fill="#4a3020" stroke="#2a211a" stroke-width=".8" stroke-linejoin="round"/><rect x="170" y="113" width="2.6" height="3" fill="#34424f"/><polygon points="157.5,112 162,104 173,104 177.5,112" fill="#a8883a" stroke="#2a211a" stroke-width=".8" stroke-linejoin="round"/><rect x="159.6" y="119" width="15.8" height="2" fill="#8a8678"/><ellipse cx="186" cy="122.8" rx="9.92" ry="1.6" fill="#2f3a1c" opacity=".45"/><rect x="178" y="104" width="16" height="18" fill="#cdbf9f" stroke="#2a211a" stroke-width=".8" stroke-linejoin="round"/><path d="M178 112.1 H194 M186 104 V122" stroke="#5a3a22" stroke-width="1" fill="none"/><path d="M178 112.1 L186 104 L194 112.1" stroke="#5a3a22" stroke-width=".7" fill="none"/><rect x="181" y="108" width="3" height="4" fill="#34424f"/><rect x="188" y="108" width="3" height="4" fill="#34424f"/><rect x="181" y="115.1" width="3" height="4" fill="#34424f"/><rect x="188" y="114" width="4" height="8" fill="#5a3a22" stroke="#2a211a" stroke-width=".8" stroke-linejoin="round"/><polygon points="175.5,105 186,91 196.5,105" fill="#4e4e58" stroke="#2a211a" stroke-width=".8" stroke-linejoin="round"/><rect x="177.6" y="120" width="16.8" height="2" fill="#8a8678"/><path d="M72 200 Q92 160 96 124 Q100 106 100 100 Q104 106 106 124 Q112 160 138 200Z" fill="#c9b585"/><path d="M97 124 Q92 160 74 200" fill="none" stroke="#a89560" stroke-width="1.2" opacity=".6"/><path d="M-2 212 L22 160 L58 142 L100 136 L146 140 L182 158 L204 212 L-2 212Z" fill="#7d7d86" stroke="#1f1a17" stroke-width="4" stroke-linejoin="round"/><path d="M22 160 L58 142 L100 136 L88 164 L46 174Z" fill="#b9b9c0"/><path d="M100 136 L146 140 L182 158 L204 212 L152 184Z" fill="#4a4a54"/></g></g>
</svg>
